<svg id="visual" viewBox="0 0 900 300" width="900" height="300" xmlns="http://www.w3.org/2000/svg" xmlns:xlink="http://www.w3.org/1999/xlink" version="1.1"><path d="M0 62L21.5 68C43 74 86 86 128.8 87.3C171.7 88.7 214.3 79.3 257.2 72.3C300 65.3 343 60.7 385.8 61.3C428.7 62 471.3 68 514.2 75.5C557 83 600 92 642.8 87.3C685.7 82.7 728.3 64.3 771.2 60.8C814 57.3 857 68.7 878.5 74.3L900 80L900 301L878.5 301C857 301 814 301 771.2 301C728.3 301 685.7 301 642.8 301C600 301 557 301 514.2 301C471.3 301 428.7 301 385.8 301C343 301 300 301 257.2 301C214.3 301 171.7 301 128.8 301C86 301 43 301 21.5 301L0 301Z" fill="#009473"></path><path d="M0 110L21.5 118.2C43 126.3 86 142.7 128.8 146.8C171.7 151 214.3 143 257.2 135.7C300 128.3 343 121.7 385.8 118.2C428.7 114.7 471.3 114.3 514.2 116.7C557 119 600 124 642.8 131C685.7 138 728.3 147 771.2 146.8C814 146.7 857 137.3 878.5 132.7L900 128L900 301L878.5 301C857 301 814 301 771.2 301C728.3 301 685.7 301 642.8 301C600 301 557 301 514.2 301C471.3 301 428.7 301 385.8 301C343 301 300 301 257.2 301C214.3 301 171.7 301 128.8 301C86 301 43 301 21.5 301L0 301Z" fill="#0096bd"></path><path d="M0 204L21.5 205C43 206 86 208 128.8 202.5C171.7 197 214.3 184 257.2 181.8C300 179.7 343 188.3 385.8 191.3C428.7 194.3 471.3 191.7 514.2 186.7C557 181.7 600 174.3 642.8 175.5C685.7 176.7 728.3 186.3 771.2 192.8C814 199.3 857 202.7 878.5 204.3L900 206L900 301L878.5 301C857 301 814 301 771.2 301C728.3 301 685.7 301 642.8 301C600 301 557 301 514.2 301C471.3 301 428.7 301 385.8 301C343 301 300 301 257.2 301C214.3 301 171.7 301 128.8 301C86 301 43 301 21.5 301L0 301Z" fill="#0086e6"></path><path d="M0 262L21.5 261C43 260 86 258 128.8 250.5C171.7 243 214.3 230 257.2 228.2C300 226.3 343 235.7 385.8 237C428.7 238.3 471.3 231.7 514.2 229.5C557 227.3 600 229.7 642.8 231.5C685.7 233.3 728.3 234.7 771.2 237.8C814 241 857 246 878.5 248.5L900 251L900 301L878.5 301C857 301 814 301 771.2 301C728.3 301 685.7 301 642.8 301C600 301 557 301 514.2 301C471.3 301 428.7 301 385.8 301C343 301 300 301 257.2 301C214.3 301 171.7 301 128.8 301C86 301 43 301 21.5 301L0 301Z" fill="#0066ff"></path></svg>