<svg id="visual" viewBox="0 0 900 600" width="900" height="600" xmlns="http://www.w3.org/2000/svg" xmlns:xlink="http://www.w3.org/1999/xlink" version="1.1"><path d="M0 408L21.5 416.8C43 425.7 86 443.3 128.8 444C171.7 444.7 214.3 428.3 257.2 423.3C300 418.3 343 424.7 385.8 429.2C428.7 433.7 471.3 436.3 514.2 442.2C557 448 600 457 642.8 454C685.7 451 728.3 436 771.2 432C814 428 857 435 878.5 438.5L900 442L900 601L878.5 601C857 601 814 601 771.2 601C728.3 601 685.7 601 642.8 601C600 601 557 601 514.2 601C471.3 601 428.7 601 385.8 601C343 601 300 601 257.2 601C214.3 601 171.7 601 128.8 601C86 601 43 601 21.5 601L0 601Z" fill="#009473"></path><path d="M0 469L21.5 473.5C43 478 86 487 128.8 489.2C171.7 491.3 214.3 486.7 257.2 483.2C300 479.7 343 477.3 385.8 473.3C428.7 469.3 471.3 463.7 514.2 461.5C557 459.3 600 460.7 642.8 458.5C685.7 456.3 728.3 450.7 771.2 457.7C814 464.7 857 484.3 878.5 494.2L900 504L900 601L878.5 601C857 601 814 601 771.2 601C728.3 601 685.7 601 642.8 601C600 601 557 601 514.2 601C471.3 601 428.7 601 385.8 601C343 601 300 601 257.2 601C214.3 601 171.7 601 128.8 601C86 601 43 601 21.5 601L0 601Z" fill="#0096bd"></path><path d="M0 500L21.5 501.8C43 503.7 86 507.3 128.8 507.7C171.7 508 214.3 505 257.2 505.5C300 506 343 510 385.8 510.8C428.7 511.7 471.3 509.3 514.2 506.7C557 504 600 501 642.8 504.5C685.7 508 728.3 518 771.2 516.7C814 515.3 857 502.7 878.5 496.3L900 490L900 601L878.5 601C857 601 814 601 771.2 601C728.3 601 685.7 601 642.8 601C600 601 557 601 514.2 601C471.3 601 428.7 601 385.8 601C343 601 300 601 257.2 601C214.3 601 171.7 601 128.8 601C86 601 43 601 21.5 601L0 601Z" fill="#0086e6"></path><path d="M0 562L21.5 557.8C43 553.7 86 545.3 128.8 542.3C171.7 539.3 214.3 541.7 257.2 542.8C300 544 343 544 385.8 545.5C428.7 547 471.3 550 514.2 549.8C557 549.7 600 546.3 642.8 544.5C685.7 542.7 728.3 542.3 771.2 540.3C814 538.3 857 534.7 878.5 532.8L900 531L900 601L878.5 601C857 601 814 601 771.2 601C728.3 601 685.7 601 642.8 601C600 601 557 601 514.2 601C471.3 601 428.7 601 385.8 601C343 601 300 601 257.2 601C214.3 601 171.7 601 128.8 601C86 601 43 601 21.5 601L0 601Z" fill="#0066ff"></path></svg>