<svg id="visual" viewBox="0 0 900 300" width="900" height="300" xmlns="http://www.w3.org/2000/svg" xmlns:xlink="http://www.w3.org/1999/xlink" version="1.1"><path d="M0 87L21.5 86C43 85 86 83 128.8 80C171.7 77 214.3 73 257.2 75.8C300 78.7 343 88.3 385.8 90.7C428.7 93 471.3 88 514.2 87.5C557 87 600 91 642.8 94.7C685.7 98.3 728.3 101.7 771.2 101.7C814 101.7 857 98.3 878.5 96.7L900 95L900 301L878.5 301C857 301 814 301 771.2 301C728.3 301 685.7 301 642.8 301C600 301 557 301 514.2 301C471.3 301 428.7 301 385.8 301C343 301 300 301 257.2 301C214.3 301 171.7 301 128.8 301C86 301 43 301 21.5 301L0 301Z" fill="#009473"></path><path d="M0 132L21.5 135.2C43 138.3 86 144.7 128.8 146.2C171.7 147.7 214.3 144.3 257.2 137.5C300 130.7 343 120.3 385.8 119.7C428.7 119 471.3 128 514.2 129.3C557 130.7 600 124.3 642.8 120.3C685.7 116.3 728.3 114.7 771.2 119.5C814 124.3 857 135.7 878.5 141.3L900 147L900 301L878.5 301C857 301 814 301 771.2 301C728.3 301 685.7 301 642.8 301C600 301 557 301 514.2 301C471.3 301 428.7 301 385.8 301C343 301 300 301 257.2 301C214.3 301 171.7 301 128.8 301C86 301 43 301 21.5 301L0 301Z" fill="#0096bd"></path><path d="M0 159L21.5 160.3C43 161.7 86 164.3 128.8 165C171.7 165.7 214.3 164.3 257.2 168.2C300 172 343 181 385.8 183.2C428.7 185.3 471.3 180.7 514.2 179C557 177.3 600 178.7 642.8 181.8C685.7 185 728.3 190 771.2 188C814 186 857 177 878.5 172.5L900 168L900 301L878.5 301C857 301 814 301 771.2 301C728.3 301 685.7 301 642.8 301C600 301 557 301 514.2 301C471.3 301 428.7 301 385.8 301C343 301 300 301 257.2 301C214.3 301 171.7 301 128.8 301C86 301 43 301 21.5 301L0 301Z" fill="#0086e6"></path><path d="M0 233L21.5 232.3C43 231.7 86 230.3 128.8 230.3C171.7 230.3 214.3 231.7 257.2 235.8C300 240 343 247 385.8 251C428.7 255 471.3 256 514.2 251.8C557 247.7 600 238.3 642.8 232.8C685.7 227.3 728.3 225.7 771.2 227.2C814 228.7 857 233.3 878.5 235.7L900 238L900 301L878.5 301C857 301 814 301 771.2 301C728.3 301 685.7 301 642.8 301C600 301 557 301 514.2 301C471.3 301 428.7 301 385.8 301C343 301 300 301 257.2 301C214.3 301 171.7 301 128.8 301C86 301 43 301 21.5 301L0 301Z" fill="#0066ff"></path></svg>