<svg id="visual" viewBox="0 0 900 300" width="900" height="300" xmlns="http://www.w3.org/2000/svg" xmlns:xlink="http://www.w3.org/1999/xlink" version="1.1"><path d="M0 236L21.5 230C43 224 86 212 128.8 210.7C171.7 209.3 214.3 218.7 257.2 225.7C300 232.7 343 237.3 385.8 236.7C428.7 236 471.3 230 514.2 222.5C557 215 600 206 642.8 210.7C685.7 215.3 728.3 233.7 771.2 237.2C814 240.7 857 229.3 878.5 223.7L900 218L900 0L878.5 0C857 0 814 0 771.2 0C728.3 0 685.7 0 642.8 0C600 0 557 0 514.2 0C471.3 0 428.7 0 385.8 0C343 0 300 0 257.2 0C214.3 0 171.7 0 128.8 0C86 0 43 0 21.5 0L0 0Z" fill="#009473"></path><path d="M0 188L21.5 179.8C43 171.7 86 155.3 128.8 151.2C171.7 147 214.3 155 257.2 162.3C300 169.7 343 176.3 385.8 179.8C428.7 183.3 471.3 183.7 514.2 181.3C557 179 600 174 642.8 167C685.7 160 728.3 151 771.2 151.2C814 151.3 857 160.7 878.5 165.3L900 170L900 0L878.5 0C857 0 814 0 771.2 0C728.3 0 685.7 0 642.8 0C600 0 557 0 514.2 0C471.3 0 428.7 0 385.8 0C343 0 300 0 257.2 0C214.3 0 171.7 0 128.8 0C86 0 43 0 21.5 0L0 0Z" fill="#0096bd"></path><path d="M0 94L21.5 93C43 92 86 90 128.8 95.5C171.7 101 214.3 114 257.2 116.2C300 118.3 343 109.7 385.8 106.7C428.7 103.7 471.3 106.3 514.2 111.3C557 116.3 600 123.7 642.8 122.5C685.7 121.3 728.3 111.7 771.2 105.2C814 98.7 857 95.3 878.5 93.7L900 92L900 0L878.5 0C857 0 814 0 771.2 0C728.3 0 685.7 0 642.8 0C600 0 557 0 514.2 0C471.3 0 428.7 0 385.8 0C343 0 300 0 257.2 0C214.3 0 171.7 0 128.8 0C86 0 43 0 21.5 0L0 0Z" fill="#0086e6"></path><path d="M0 36L21.5 37C43 38 86 40 128.8 47.5C171.7 55 214.3 68 257.2 69.8C300 71.7 343 62.3 385.8 61C428.7 59.7 471.3 66.3 514.2 68.5C557 70.7 600 68.3 642.8 66.5C685.7 64.7 728.3 63.3 771.2 60.2C814 57 857 52 878.5 49.5L900 47L900 0L878.5 0C857 0 814 0 771.2 0C728.3 0 685.7 0 642.8 0C600 0 557 0 514.2 0C471.3 0 428.7 0 385.8 0C343 0 300 0 257.2 0C214.3 0 171.7 0 128.8 0C86 0 43 0 21.5 0L0 0Z" fill="#0066ff"></path></svg>